<?xml version="1.0" encoding="UTF-8" standalone="no"?>
<!-- Created with Inkscape (http://www.inkscape.org/) -->

<svg
   width="50mm"
   height="50mm"
   viewBox="0 0 50 50"
   version="1.1"
   id="svg913"
   sodipodi:docname="profile_4mm.svg"
   inkscape:version="1.1.1 (c3084ef, 2021-09-22)"
   xmlns:inkscape="http://www.inkscape.org/namespaces/inkscape"
   xmlns:sodipodi="http://sodipodi.sourceforge.net/DTD/sodipodi-0.dtd"
   xmlns="http://www.w3.org/2000/svg"
   xmlns:svg="http://www.w3.org/2000/svg">
  <sodipodi:namedview
     id="namedview915"
     pagecolor="#ffffff"
     bordercolor="#666666"
     borderopacity="1.0"
     inkscape:pageshadow="2"
     inkscape:pageopacity="0.0"
     inkscape:pagecheckerboard="0"
     inkscape:document-units="mm"
     showgrid="true"
     inkscape:zoom="4.460875"
     inkscape:cx="94.488189"
     inkscape:cy="94.488189"
     inkscape:window-width="1920"
     inkscape:window-height="1027"
     inkscape:window-x="0"
     inkscape:window-y="25"
     inkscape:window-maximized="1"
     inkscape:current-layer="layer1"
     showguides="true"
     inkscape:lockguides="true">
    <inkscape:grid
       type="xygrid"
       id="grid932"
       empspacing="10"
       originx="19.70729"
       originy="-0.44695741"
       snapvisiblegridlinesonly="false"
       enabled="false" />
  </sodipodi:namedview>
  <defs
     id="defs910" />
  <g
     inkscape:label="Layer 1"
     inkscape:groupmode="layer"
     id="layer1"
     transform="translate(-5.2927093,25.446956)">
    <path
       id="path2115"
       style="fill:none;fill-opacity:1;stroke:#000000;stroke-width:0.0102274;stroke-linecap:butt;stroke-linejoin:miter;stroke-miterlimit:4;stroke-dasharray:none;stroke-opacity:1"
       d="m 27.251249,-18.516888 c -11.042761,1e-6 -19.9949681,8.9522063 -19.9949691,19.9951573 1e-6,11.0429417 8.9522081,19.9946147 19.9949691,19.9946147 3.745505,0 7.250119,-1.030158 10.246822,-2.822163 l -4.687524,-5.66217 v 5.229194 h -3.034838 v -5.229194 h -1.797896 v 5.229194 l -1.526507,5.54e-4 V 12.988551 H 23.65357 v 5.229194 h -2.034998 v -5.229194 h -7.900217 v -23.02489 h 7.900217 v -5.22541 h 2.034998 v 5.22541 h 2.797736 v -5.22541 h 1.526507 v 5.22541 h 1.797896 v -5.22541 h 3.034838 v 5.22541 l 4.686598,-5.659552 v 0 c -2.996674,-1.791477 -6.500833,-2.820997 -10.245896,-2.820997 z"
       sodipodi:nodetypes="ssscccccccccccccccccccccccccccccs" />
  </g>
</svg>
